<?xml version="1.0" encoding="UTF-8"?><svg xmlns="http://www.w3.org/2000/svg" xmlns:xlink="http://www.w3.org/1999/xlink" viewBox="0 0 837.11 218.26"><defs><linearGradient id="c" x1="12.03" y1="3.01" x2="169.47" y2="160.45" gradientUnits="userSpaceOnUse"><stop offset="0" stop-color="#00cfff"/><stop offset=".23" stop-color="#00cbfd"/><stop offset=".41" stop-color="#03c2f8"/><stop offset=".57" stop-color="#08b2f1"/><stop offset=".71" stop-color="#0e9be6"/><stop offset=".71" stop-color="#0f9be6"/><stop offset=".83" stop-color="#1489dd"/><stop offset="1" stop-color="#1f66cc"/></linearGradient></defs><g id="a"><path d="m230.32,158.1v-92.4h40c8.27,0,15.4,1.34,21.38,4.03,5.98,2.69,10.6,6.53,13.86,11.55,3.25,5.02,4.88,10.96,4.88,17.82s-1.63,12.92-4.88,17.89c-3.26,4.97-7.88,8.76-13.86,11.35-5.99,2.6-13.11,3.89-21.38,3.89h-28.25l9.77-9.24v35.11h-21.52Zm21.52-32.74l-9.77-10.16h27.06c6.51,0,11.44-1.41,14.78-4.22,3.34-2.82,5.02-6.78,5.02-11.88s-1.67-9.04-5.02-11.81c-3.35-2.77-8.27-4.16-14.78-4.16h-27.06l9.77-10.16v52.4Zm37.36,32.74l-23.23-33.53h22.97l23.23,33.53h-22.97Z" style="fill:#1d1d1b; stroke-width:0px;"/><path d="m347.93,159.16c-5.46,0-10.16-.95-14.12-2.84-3.96-1.89-7.02-4.46-9.17-7.72-2.16-3.25-3.23-6.91-3.23-10.96s1.03-7.81,3.1-11.02c2.07-3.21,5.35-5.7,9.83-7.46,4.49-1.76,10.38-2.64,17.69-2.64h18.74v11.88h-16.63c-4.84,0-8.16.79-9.97,2.38-1.8,1.58-2.71,3.56-2.71,5.94,0,2.64,1.03,4.73,3.1,6.27,2.07,1.54,4.86,2.31,8.38,2.31s6.67-.79,9.44-2.38c2.77-1.58,4.73-4,5.87-7.26l3.17,9.64c-1.5,4.4-4.22,7.81-8.18,10.23-3.96,2.42-9.06,3.63-15.31,3.63Zm21.65-1.06v-13.86l-1.32-3.04v-24.82c0-4.4-1.34-7.83-4.03-10.3-2.69-2.46-6.8-3.7-12.34-3.7-3.78,0-7.5.59-11.15,1.78-3.65,1.19-6.8,2.79-9.44,4.82l-7.26-14.39c3.87-2.82,8.53-4.95,13.99-6.4,5.46-1.45,11-2.18,16.63-2.18,10.82,0,19.23,2.55,25.21,7.66,5.98,5.1,8.98,13.07,8.98,23.89v40.52h-19.27Z" style="fill:#1d1d1b; stroke-width:0px;"/><path d="m407.46,183.71v-96.62h19.67v14.52l-.4,21.12,1.32,20.99v40h-20.59Zm41.84-24.55c-5.9,0-11.09-1.32-15.58-3.96-4.49-2.64-7.99-6.67-10.49-12.08-2.51-5.41-3.76-12.25-3.76-20.53s1.19-15.22,3.56-20.59c2.38-5.37,5.83-9.37,10.36-12.01,4.53-2.64,9.83-3.96,15.91-3.96,6.78,0,12.83,1.52,18.15,4.55,5.32,3.04,9.55,7.28,12.67,12.74,3.12,5.46,4.69,11.88,4.69,19.27s-1.56,13.93-4.69,19.34c-3.12,5.41-7.35,9.64-12.67,12.67-5.33,3.04-11.38,4.55-18.15,4.55Zm-3.43-16.9c3.43,0,6.49-.79,9.17-2.38,2.68-1.58,4.84-3.85,6.47-6.8,1.63-2.95,2.44-6.45,2.44-10.49s-.81-7.66-2.44-10.56c-1.63-2.9-3.78-5.12-6.47-6.67-2.69-1.54-5.74-2.31-9.17-2.31s-6.51.77-9.24,2.31c-2.73,1.54-4.91,3.76-6.53,6.67-1.63,2.9-2.44,6.42-2.44,10.56s.81,7.55,2.44,10.49c1.63,2.95,3.81,5.21,6.53,6.8,2.73,1.58,5.81,2.38,9.24,2.38Z" style="fill:#1d1d1b; stroke-width:0px;"/><path d="m508.97,77.19c-3.87,0-7-1.1-9.37-3.3-2.38-2.2-3.56-4.93-3.56-8.18s1.19-5.98,3.56-8.18c2.38-2.2,5.5-3.3,9.37-3.3s6.88,1.04,9.31,3.1c2.42,2.07,3.63,4.73,3.63,7.99,0,3.43-1.19,6.27-3.56,8.51s-5.5,3.37-9.37,3.37Zm-10.3,80.92v-71.02h20.59v71.02h-20.59Z" style="fill:#1d1d1b; stroke-width:0px;"/><path d="m568.89,159.16c-6.69,0-12.72-1.52-18.08-4.55-5.37-3.04-9.59-7.28-12.67-12.74-3.08-5.46-4.62-11.88-4.62-19.27s1.54-13.81,4.62-19.27c3.08-5.46,7.3-9.7,12.67-12.74,5.37-3.04,11.4-4.55,18.08-4.55,5.98,0,11.22,1.32,15.71,3.96,4.49,2.64,7.96,6.65,10.43,12.01,2.46,5.37,3.7,12.23,3.7,20.59s-1.19,15.14-3.56,20.59c-2.38,5.46-5.79,9.48-10.23,12.08-4.45,2.6-9.79,3.89-16.04,3.89Zm3.43-16.9c3.43,0,6.51-.77,9.24-2.31,2.73-1.54,4.9-3.8,6.53-6.8,1.63-2.99,2.44-6.51,2.44-10.56s-.81-7.66-2.44-10.56c-1.63-2.9-3.81-5.12-6.53-6.67-2.73-1.54-5.81-2.31-9.24-2.31s-6.38.77-9.11,2.31c-2.73,1.54-4.91,3.76-6.53,6.67-1.63,2.9-2.44,6.42-2.44,10.56s.81,7.57,2.44,10.56c1.63,2.99,3.81,5.26,6.53,6.8,2.73,1.54,5.76,2.31,9.11,2.31Zm18.74,15.84v-14.52l.4-21.12-1.32-20.99v-41.32h20.59v97.94h-19.67Z" style="fill:#1d1d1b; stroke-width:0px;"/><path d="m619.58,158.1l41.58-92.4h16.9l41.71,92.4h-18.08l-35.64-83.29h6.86l-35.77,83.29h-17.56Zm19.14-21.38l4.75-13.46h49.76l4.62,13.46h-59.14Z" style="fill:#1d1d1b; stroke-width:0px;"/><path d="m738.11,76c-3.08,0-5.61-.97-7.59-2.9-1.98-1.93-2.97-4.31-2.97-7.13,0-2.64.99-4.93,2.97-6.86,1.98-1.93,4.51-2.9,7.59-2.9s5.61.9,7.59,2.71c1.98,1.8,2.97,4.11,2.97,6.93s-.97,5.21-2.9,7.19c-1.94,1.98-4.49,2.97-7.66,2.97Zm-8.18,82.1v-70.49h16.37v70.49h-16.37Z" style="fill:#1d1d1b; stroke-width:0px;"/><path d="m797.91,159.03c-6.78,0-12.87-1.5-18.28-4.49-5.41-2.99-9.66-7.19-12.74-12.61-3.08-5.41-4.62-11.77-4.62-19.07s1.54-13.55,4.62-19.01c3.08-5.46,7.33-9.68,12.74-12.67,5.41-2.99,11.5-4.49,18.28-4.49,5.89,0,11.17,1.3,15.84,3.89,4.66,2.6,8.36,6.56,11.09,11.88,2.73,5.33,4.09,12.12,4.09,20.39s-1.32,14.96-3.96,20.33c-2.64,5.37-6.27,9.35-10.89,11.95-4.62,2.6-10.01,3.89-16.17,3.89Zm1.98-13.99c3.96,0,7.5-.9,10.63-2.71,3.12-1.8,5.63-4.4,7.52-7.79,1.89-3.39,2.84-7.28,2.84-11.68s-.95-8.38-2.84-11.68c-1.89-3.3-4.4-5.85-7.52-7.66-3.12-1.8-6.67-2.71-10.63-2.71s-7.5.9-10.63,2.71c-3.12,1.8-5.63,4.36-7.52,7.66-1.89,3.3-2.84,7.19-2.84,11.68s.94,8.3,2.84,11.68c1.89,3.39,4.4,5.99,7.52,7.79,3.12,1.8,6.67,2.71,10.63,2.71Zm21.52,13.07v-16.63l.4-18.74-1.32-18.74v-43.82h16.63v97.94h-15.71Z" style="fill:#1d1d1b; stroke-width:0px;"/></g><g id="b"><path d="m90.75,23.22c25.27,0,48.56,3.3,67.24,8.85v90.35c-.79,8.6-4.3,16.85-9.84,24.71-9.62,13.66-25.37,26.25-43.64,37.8-4.64,2.94-9.26,5.46-13.77,7.6-4.52-2.15-9.13-4.66-13.78-7.6-18.27-11.55-34.01-24.14-43.63-37.8-5.54-7.87-9.05-16.11-9.84-24.71V32.07c18.68-5.55,41.97-8.85,67.24-8.85Zm90.48-8.47v108.73l-.1,1.06c-1.14,12.31-5.84,24.4-13.98,35.94-10.5,14.92-26.92,29.34-50.2,44.06-5.21,3.3-10.66,6.31-16.22,8.95l-9.97,4.75h0l-9.97-4.74c-5.55-2.64-11.02-5.65-16.23-8.95-23.28-14.73-39.7-29.14-50.2-44.06C6.22,148.95,1.52,136.86.39,124.55l-.1-1.06V14.76l16.6-4.94C38.48,3.4,64.02,0,90.76,0s52.28,3.4,73.86,9.81l16.6,4.94Zm-11.62,8.66l-8.3-2.47c-20.52-6.11-44.91-9.34-70.55-9.34s-50.02,3.23-70.55,9.34l-8.3,2.47v99.54l.06.53c.94,10.26,4.94,20.45,11.91,30.33,9.6,13.65,24.94,27.04,46.91,40.93,4.82,3.06,9.87,5.84,15.01,8.28l4.98,2.37,4.98-2.37c5.14-2.45,10.18-5.23,15-8.28,21.96-13.89,37.31-27.28,46.92-40.94,6.96-9.87,10.96-20.07,11.9-30.32l.05-.53V23.41Z" style="fill:url(#c); stroke-width:0px;"/><polygon id="d" points="116.83 94.22 96.19 120.54 75.54 146.87 87.7 107.08 64.67 100.04 85.31 73.72 105.95 47.39 93.79 87.18 116.83 94.22" style="fill:#fff; stroke-width:0px;"/><path id="e" d="m90.76,0v218.26l-9.97-4.74c-5.55-2.64-11.02-5.65-16.23-8.95-23.28-14.73-39.7-29.14-50.2-44.06C6.22,148.95,1.52,136.86.39,124.55l-.1-1.06V14.76l16.6-4.94C38.48,3.4,64.02,0,90.76,0Z" style="fill:#fff; opacity:.12; stroke-width:0px;"/></g></svg>