<?xml version="1.0" encoding="UTF-8"?><svg id="b" xmlns="http://www.w3.org/2000/svg" xmlns:xlink="http://www.w3.org/1999/xlink" viewBox="0 0 187 225.58"><defs><linearGradient id="c" x1="12.14" y1="3.11" x2="174.86" y2="165.83" gradientUnits="userSpaceOnUse"><stop offset="0" stop-color="#00cfff"/><stop offset=".23" stop-color="#00cbfd"/><stop offset=".41" stop-color="#03c2f8"/><stop offset=".57" stop-color="#08b2f1"/><stop offset=".71" stop-color="#0e9be6"/><stop offset=".71" stop-color="#0f9be6"/><stop offset=".83" stop-color="#1489dd"/><stop offset="1" stop-color="#1f66cc"/></linearGradient></defs><path d="m93.49,24c26.12,0,50.19,3.41,69.5,9.15v93.38c-.82,8.89-4.44,17.41-10.17,25.54-9.94,14.12-26.22,27.13-45.1,39.07-4.8,3.04-9.57,5.64-14.23,7.86-4.67-2.22-9.44-4.82-14.24-7.86-18.88-11.94-35.15-24.95-45.09-39.07-5.73-8.13-9.35-16.65-10.17-25.54V33.15c19.31-5.74,43.38-9.15,69.5-9.15Zm93.51-8.75v112.38l-.1,1.1c-1.18,12.72-6.04,25.22-14.45,37.15-10.85,15.42-27.82,30.32-51.88,45.54-5.38,3.41-11.02,6.52-16.76,9.25l-10.3,4.91h-.01l-10.3-4.9c-5.74-2.73-11.39-5.84-16.77-9.25-24.06-15.22-41.03-30.12-51.88-45.54C6.13,153.95,1.27,141.45.1,128.73l-.1-1.1V15.25l17.16-5.11C39.47,3.51,65.87,0,93.5,0s54.03,3.51,76.34,10.14l17.16,5.11Zm-12.01,8.95l-8.58-2.55c-21.21-6.31-46.42-9.65-72.92-9.65s-51.7,3.34-72.92,9.65l-8.58,2.55v102.88l.06.55c.97,10.6,5.11,21.14,12.31,31.35,9.92,14.11,25.78,27.95,48.48,42.3,4.98,3.16,10.2,6.04,15.51,8.56l5.15,2.45,5.15-2.45c5.31-2.53,10.52-5.41,15.5-8.56,22.7-14.36,38.56-28.2,48.49-42.31,7.19-10.2,11.33-20.74,12.3-31.34l.05-.55V24.2Z" style="fill:url(#c); stroke-width:0px;"/><polygon id="d" points="120.45 97.38 99.12 124.58 77.78 151.79 90.35 110.67 66.54 103.39 87.88 76.19 109.21 48.98 96.64 90.1 120.45 97.38" style="fill:#fff; stroke-width:0px;"/><path id="e" d="m93.5,0v225.58l-10.3-4.9c-5.74-2.73-11.39-5.84-16.77-9.25-24.06-15.22-41.03-30.12-51.88-45.54C6.13,153.95,1.27,141.45.1,128.73l-.1-1.1V15.25l17.16-5.11C39.47,3.51,65.87,0,93.5,0Z" style="fill:#fff; opacity:.12; stroke-width:0px;"/></svg>