<?xml version="1.0" encoding="UTF-8"?><svg id="Warstwa_1" xmlns="http://www.w3.org/2000/svg" viewBox="0 0 121.17 152.19"><defs><style>.cls-1{fill:#fff;}.cls-2{fill:#ca8a04;}</style></defs><path class="cls-2" d="m20.51,104.54C-1.45,81.6-1.45,44.27,20.51,21.32,31.21,10.15,45.44,4,60.58,4s29.38,6.15,40.07,17.32c21.96,22.94,21.96,60.28,0,83.22l-40.07,41.86-40.07-41.86Z"/><path class="cls-1" d="m60.58,8c13.46,0,26.91,5.36,37.18,16.09h0c20.54,21.45,20.54,56.24,0,77.69l-37.18,38.84-37.18-38.84C2.87,80.32,2.87,45.54,23.4,24.09h0c10.27-10.73,23.72-16.09,37.18-16.09m0-8c-16.25,0-31.51,6.59-42.96,18.56C6.26,30.43,0,46.19,0,62.93s6.26,32.5,17.62,44.38l37.18,38.84,5.78,6.04,5.78-6.04,37.18-38.84c11.36-11.87,17.62-27.63,17.62-44.38s-6.26-32.5-17.62-44.38C92.09,6.59,76.83,0,60.58,0h0Z"/><path class="cls-1" d="m78.61,29.03c-8.41,0-15.24,6.83-15.24,15.24s6.83,15.24,15.24,15.24,15.24-6.83,15.24-15.24-6.83-15.24-15.24-15.24m1.52,18.28h-3.05v-12.19h3.05v12.19Zm0,3.05v3.05h-3.05v-3.05h3.05Zm-38.09,16.76c0-2.53,2.04-4.57,4.57-4.57s4.57,2.04,4.57,4.57-2.04,4.57-4.57,4.57-4.57-2.04-4.57-4.57m39.61-1.74c1.98-.27,4.08-.85,6.09-1.83v20.33c0,1.68-1.37,3.05-3.05,3.05h-3.05c-1.68,0-3.05-1.37-3.05-3.05v-3.05h-36.57v3.05c0,1.68-1.37,3.05-3.05,3.05h-3.05c-1.68,0-3.05-1.37-3.05-3.05v-24.38l6.34-18.25c.64-1.8,2.32-3.08,4.33-3.08h14.6c-.58,1.92-.88,3.99-.88,6.09h-12.65l-3.17,9.14h17.86c1.1,2.29,2.56,4.36,4.36,6.09h-24.68v15.24h42.66v-9.36Zm-3.32.21c-2.71-.03-5.3-.58-7.71-1.55-.7.82-1.16,1.89-1.16,3.08,0,2.53,2.04,4.57,4.57,4.57s4.57-2.04,4.57-4.57c0-.55-.09-1.04-.27-1.52"/></svg>