<?xml version="1.0" encoding="UTF-8"?><svg id="Warstwa_1" xmlns="http://www.w3.org/2000/svg" viewBox="0 0 121.17 152.19"><defs><style>.cls-1{fill:#fff;}.cls-2{fill:#9333ea;}</style></defs><path class="cls-2" d="m20.51,104.54C-1.45,81.6-1.45,44.27,20.51,21.32,31.21,10.15,45.44,4,60.58,4s29.38,6.15,40.07,17.32c21.96,22.94,21.96,60.28,0,83.22l-40.07,41.86-40.07-41.86Z"/><path class="cls-1" d="m60.58,8c13.46,0,26.91,5.36,37.18,16.09h0c20.54,21.45,20.54,56.24,0,77.69l-37.18,38.84-37.18-38.84C2.87,80.32,2.87,45.54,23.4,24.09h0c10.27-10.73,23.72-16.09,37.18-16.09m0-8c-16.25,0-31.51,6.59-42.96,18.56C6.26,30.43,0,46.19,0,62.93s6.26,32.5,17.62,44.38l37.18,38.84,5.78,6.04,5.78-6.04,37.18-38.84c11.36-11.87,17.62-27.63,17.62-44.38s-6.26-32.5-17.62-44.38C92.09,6.59,76.83,0,60.58,0h0Z"/><path class="cls-1" d="m81.2,34.21h-41.5c-3.26,0-5.93,2.67-5.93,5.93v41.5c0,3.26,2.67,5.93,5.93,5.93h41.5c3.26,0,5.93-2.67,5.93-5.93v-41.5c0-3.26-2.67-5.93-5.93-5.93m0,47.43h-41.5v-13.58l2.93,2.93,11.86-11.86,11.86,11.86,11.86-11.83,2.99,2.99v19.48Zm0-27.9l-2.99-2.99-11.86,11.89-11.86-11.86-11.86,11.86-2.93-2.96v-19.54h41.5v13.61Z"/></svg>