<?xml version="1.0" encoding="UTF-8"?><svg id="Warstwa_1" xmlns="http://www.w3.org/2000/svg" viewBox="0 0 121.17 152.19"><defs><style>.cls-1{fill:#fff;}.cls-2{fill:#dc2727;}</style></defs><path class="cls-1" d="m48.89,43.79c3.89-6.22,7.73-12.36,11.62-18.58,3.89,6.23,7.73,12.36,11.62,18.58,2.34-3.12,4.63-6.17,6.94-9.25,3.27,4.88,6.87,9.45,9.4,14.71,5.54,11.55,3.76,22.31-4.06,32.03-6.43,8-15.14,11.67-25.4,11.25-14.76-.6-27.06-11.81-29.3-26.39-1-6.53.4-12.57,3.55-18.24,1.59-2.86,3.42-5.58,5.2-8.32,1.1-1.69,2.3-3.31,3.49-5.02,2.29,3.05,4.57,6.1,6.93,9.23Zm11.58,11.52c-1.59,1.97-3.14,3.78-4.58,5.68-2.53,3.34-4.79,6.85-6.16,10.85-.63,1.84-1.09,3.73-.71,5.67.59,2.98,2.4,5.09,5,6.53,2.98,1.64,6.18,1.9,9.47,1.28,6.6-1.24,9.97-6.71,7.95-13.09-2.09-6.56-6.36-11.73-10.96-16.93Z"/><path class="cls-2" d="m20.51,104.54C-1.45,81.6-1.45,44.27,20.51,21.32,31.21,10.15,45.44,4,60.58,4s29.38,6.15,40.07,17.32c21.96,22.94,21.96,60.28,0,83.22l-40.07,41.86-40.07-41.86Z"/><path class="cls-1" d="m60.58,8c13.46,0,26.91,5.36,37.18,16.09h0c20.54,21.45,20.54,56.24,0,77.69l-37.18,38.84-37.18-38.84C2.87,80.32,2.87,45.54,23.4,24.09h0c10.27-10.73,23.72-16.09,37.18-16.09m0-8c-16.25,0-31.51,6.59-42.96,18.56C6.26,30.43,0,46.19,0,62.93s6.26,32.5,17.62,44.38l37.18,38.84,5.78,6.04,5.78-6.04,37.18-38.84c11.36-11.87,17.62-27.63,17.62-44.38s-6.26-32.5-17.62-44.38C92.09,6.59,76.83,0,60.58,0h0Z"/><path class="cls-1" d="m74.09,40.76l-1.49,1.86c-1.42,1.76-3.32,2.54-5.22,2.54-3.46,0-6.84-2.64-6.84-6.78v-11.18s-27.1,13.55-27.1,37.27c0,14.97,12.13,27.1,27.1,27.1s27.1-12.13,27.1-27.1c0-10.03-5.45-19.04-13.55-23.72m-13.55,44.04c-3.73,0-6.78-2.95-6.78-6.57,0-1.73.68-3.35,1.96-4.61l4.81-4.74,4.84,4.74c1.25,1.25,1.93,2.88,1.93,4.61,0,3.63-3.05,6.57-6.78,6.57m13.42-5.08c.14-1.22.75-6.4-3.83-10.91l-9.59-9.42-9.59,9.42c-4.61,4.54-3.96,9.76-3.83,10.91-4.23-3.73-6.91-9.18-6.91-15.25,0-10.71,7.22-19.14,13.65-24.56.78,6.74,6.54,12.03,13.52,12.03,2.64,0,5.22-.78,7.39-2.24,3.86,3.86,6.1,9.18,6.1,14.77,0,6.06-2.68,11.52-6.91,15.25"/></svg>