<?xml version="1.0" encoding="UTF-8"?><svg id="Warstwa_1" xmlns="http://www.w3.org/2000/svg" viewBox="0 0 121.17 152.19"><defs><style>.cls-1{fill:#fff;}.cls-2{fill:#4c5563;}</style></defs><path class="cls-1" d="m48.89,43.79c3.89-6.22,7.73-12.36,11.62-18.58,3.89,6.23,7.73,12.36,11.62,18.58,2.34-3.12,4.63-6.17,6.94-9.25,3.27,4.88,6.87,9.45,9.4,14.71,5.54,11.55,3.76,22.31-4.06,32.03-6.43,8-15.14,11.67-25.4,11.25-14.76-.6-27.06-11.81-29.3-26.39-1-6.53.4-12.57,3.55-18.24,1.59-2.86,3.42-5.58,5.2-8.32,1.1-1.69,2.3-3.31,3.49-5.02,2.29,3.05,4.57,6.1,6.93,9.23Zm11.58,11.52c-1.59,1.97-3.14,3.78-4.58,5.68-2.53,3.34-4.79,6.85-6.16,10.85-.63,1.84-1.09,3.73-.71,5.67.59,2.98,2.4,5.09,5,6.53,2.98,1.64,6.18,1.9,9.47,1.28,6.6-1.24,9.97-6.71,7.95-13.09-2.09-6.56-6.36-11.73-10.96-16.93Z"/><path class="cls-2" d="m20.51,104.54C-1.45,81.6-1.45,44.27,20.51,21.32,31.21,10.15,45.44,4,60.58,4s29.38,6.15,40.07,17.32c21.96,22.94,21.96,60.28,0,83.22l-40.07,41.86-40.07-41.86Z"/><path class="cls-1" d="m60.58,8c13.46,0,26.91,5.36,37.18,16.09h0c20.54,21.45,20.54,56.24,0,77.69l-37.18,38.84-37.18-38.84C2.87,80.32,2.87,45.54,23.4,24.09h0c10.27-10.73,23.72-16.09,37.18-16.09m0-8c-16.25,0-31.51,6.59-42.96,18.56C6.26,30.43,0,46.19,0,62.93s6.26,32.5,17.62,44.38l37.18,38.84,5.78,6.04,5.78-6.04,37.18-38.84c11.36-11.87,17.62-27.63,17.62-44.38s-6.26-32.5-17.62-44.38C92.09,6.59,76.83,0,60.58,0h0Z"/><path class="cls-1" d="m57.69,62.06c2.39-4.32,6.99-6.86,9.66-10.68,2.83-4.01,1.24-11.49-6.77-11.49-5.25,0-7.83,3.98-8.91,7.27l-8.04-3.39c2.21-6.62,8.2-12.3,16.93-12.3,7.3,0,12.3,3.32,14.85,7.48,2.17,3.57,3.45,10.25.09,15.22-3.73,5.5-7.3,7.17-9.22,10.71-.78,1.43-1.09,2.36-1.09,6.96h-8.98c-.03-2.42-.4-6.37,1.49-9.78m9.1,22.21c0,3.42-2.8,6.21-6.21,6.21s-6.21-2.8-6.21-6.21,2.8-6.21,6.21-6.21,6.21,2.8,6.21,6.21"/></svg>