<?xml version="1.0" encoding="UTF-8"?><svg id="Warstwa_1" xmlns="http://www.w3.org/2000/svg" viewBox="0 0 121.36 148.62"><defs><style>.cls-1{fill:#fff;}.cls-2{fill:#e56e24;}</style></defs><path class="cls-2" d="m59.77,144.62l-.82-.39c-3.84-1.83-7.61-3.91-11.21-6.18-16.61-10.5-28.16-20.54-35.31-30.69-4.93-7.01-7.77-14.17-8.42-21.29l-.02-.18V11.95l2.86-.85c15.63-4.64,34.23-7.1,53.81-7.1s38.2,2.45,53.83,7.1l2.86.85v73.94l-.02.18c-.66,7.13-3.49,14.29-8.42,21.29-7.14,10.14-18.69,20.18-35.32,30.69-3.36,2.14-6.92,4.11-10.57,5.88l-.69.69h-1.66s-.9,0-.9,0Z"/><path class="cls-1" d="m60.69,8c19.79,0,38.03,2.58,52.66,6.93v70.77c-.62,6.74-3.37,13.2-7.71,19.36-7.54,10.7-19.87,20.56-34.18,29.61-3.63,2.3-7.25,4.27-10.77,5.95,0,0,0,0-.02,0-3.54-1.68-7.15-3.65-10.79-5.95-14.31-9.05-26.64-18.91-34.18-29.61-4.34-6.16-7.09-12.62-7.71-19.36V14.93c14.63-4.35,32.88-6.93,52.67-6.93h.02m0-8h-.02C40.72,0,21.72,2.51,5.72,7.26l-5.72,1.7v77.11l.03.37c.72,7.83,3.79,15.64,9.13,23.23,7.46,10.59,19.38,20.98,36.44,31.77,3.74,2.36,7.65,4.52,11.63,6.42l1.63.78h5.11l1.39-1.39c3.57-1.76,7.06-3.71,10.37-5.81,17.06-10.79,28.99-21.18,36.44-31.76,5.34-7.58,8.41-15.39,9.13-23.23l.03-.37V8.96l-5.72-1.7C99.64,2.51,80.64,0,60.69,0h0Z"/><path class="cls-1" d="m48.27,42.82c4.14-6.63,8.23-13.16,12.37-19.79,4.14,6.63,8.23,13.16,12.37,19.79,2.49-3.32,4.93-6.57,7.39-9.85,3.48,5.19,7.32,10.06,10.01,15.67,5.89,12.3,4.01,23.75-4.32,34.11-6.85,8.52-16.12,12.42-27.04,11.98-15.72-.64-28.81-12.57-31.19-28.1-1.07-6.96.43-13.39,3.78-19.43,1.69-3.04,3.65-5.94,5.54-8.86,1.17-1.8,2.44-3.53,3.72-5.35,2.44,3.25,4.87,6.49,7.38,9.83Zm12.33,12.26c-1.69,2.09-3.34,4.03-4.88,6.05-2.69,3.56-5.1,7.3-6.56,11.56-.67,1.96-1.16,3.97-.76,6.04.62,3.17,2.55,5.42,5.32,6.95,3.17,1.75,6.58,2.02,10.08,1.37,7.03-1.32,10.62-7.15,8.46-13.94-2.22-6.98-6.77-12.49-11.67-18.03Z"/></svg>