<?xml version="1.0" encoding="UTF-8"?><svg id="Warstwa_1" xmlns="http://www.w3.org/2000/svg" viewBox="0 0 121.36 148.62"><defs><style>.cls-1{fill:#fff;}.cls-2{fill:#9d9d9c;}</style></defs><path class="cls-2" d="m59.77,144.62l-.82-.39c-3.84-1.83-7.61-3.91-11.21-6.18-16.61-10.5-28.16-20.54-35.31-30.69-4.93-7.01-7.77-14.17-8.42-21.29l-.02-.18V11.95l2.86-.85c15.63-4.64,34.23-7.1,53.81-7.1s38.2,2.45,53.83,7.1l2.86.85v73.94l-.02.18c-.66,7.13-3.49,14.29-8.42,21.29-7.14,10.14-18.69,20.18-35.32,30.69-3.36,2.14-6.92,4.11-10.57,5.88l-.69.69h-1.66s-.9,0-.9,0Z"/><path class="cls-1" d="m60.69,8c19.79,0,38.03,2.58,52.66,6.93v70.77c-.62,6.74-3.37,13.2-7.71,19.36-7.54,10.7-19.87,20.56-34.18,29.61-3.63,2.3-7.25,4.27-10.77,5.95,0,0,0,0-.02,0-3.54-1.68-7.15-3.65-10.79-5.95-14.31-9.05-26.64-18.91-34.18-29.61-4.34-6.16-7.09-12.62-7.71-19.36V14.93c14.63-4.35,32.88-6.93,52.67-6.93h.02m0-8h-.02C40.72,0,21.72,2.51,5.72,7.26l-5.72,1.7v77.11l.03.37c.72,7.83,3.79,15.64,9.13,23.23,7.46,10.59,19.38,20.98,36.44,31.77,3.74,2.36,7.65,4.52,11.63,6.42l1.63.78h5.11l1.39-1.39c3.57-1.76,7.06-3.71,10.37-5.81,17.06-10.79,28.99-21.18,36.44-31.76,5.34-7.58,8.41-15.39,9.13-23.23l.03-.37V8.96l-5.72-1.7C99.64,2.51,80.64,0,60.69,0h0Z"/><path class="cls-1" d="m79.53,44.86c0,4.15-1.7,7.92-4.39,10.6l-4.24,4.33c-3.38,3.44-5.51,6.26-5.51,13.33h-9.42v-2.35c0-5.19,2.13-9.9,5.51-13.33l5.84-5.95c2.09-2.02,3.17-4.99,2.67-8.18-.61-3.82-3.62-6.94-7.41-7.69-6.02-1.18-11.31,3.44-11.31,9.24h-9.42c0-10.41,8.43-18.85,18.85-18.85s18.85,8.43,18.85,18.85Z"/><path class="cls-1" d="m55.96,82.55v9.42h9.42v-9.42h-9.42Z"/></svg>