<?xml version="1.0" encoding="UTF-8"?><svg id="Warstwa_1" xmlns="http://www.w3.org/2000/svg" viewBox="0 0 121.36 148.62"><defs><style>.cls-1{fill:#fff;}.cls-2{fill:#3383c5;}</style></defs><path class="cls-2" d="m59.77,144.62l-.82-.39c-3.84-1.83-7.61-3.91-11.21-6.18-16.61-10.5-28.16-20.54-35.31-30.69-4.93-7.01-7.77-14.17-8.42-21.29l-.02-.18V11.95l2.86-.85c15.63-4.64,34.23-7.1,53.81-7.1s38.2,2.45,53.83,7.1l2.86.85v73.94l-.02.18c-.66,7.13-3.49,14.29-8.42,21.29-7.14,10.14-18.69,20.18-35.32,30.69-3.36,2.14-6.92,4.11-10.57,5.88l-.69.69h-1.66s-.9,0-.9,0Z"/><path class="cls-1" d="m60.69,8c19.79,0,38.03,2.58,52.66,6.93v70.77c-.62,6.74-3.37,13.2-7.71,19.36-7.54,10.7-19.87,20.56-34.18,29.61-3.63,2.3-7.25,4.27-10.77,5.95,0,0,0,0-.02,0-3.54-1.68-7.15-3.65-10.79-5.95-14.31-9.05-26.64-18.91-34.18-29.61-4.34-6.16-7.09-12.62-7.71-19.36V14.93c14.63-4.35,32.88-6.93,52.67-6.93h.02m0-8h-.02C40.72,0,21.72,2.51,5.72,7.26l-5.72,1.7v77.11l.03.37c.72,7.83,3.79,15.64,9.13,23.23,7.46,10.59,19.38,20.98,36.44,31.77,3.74,2.36,7.65,4.52,11.63,6.42l1.63.78h5.11l1.39-1.39c3.57-1.76,7.06-3.71,10.37-5.81,17.06-10.79,28.99-21.18,36.44-31.76,5.34-7.58,8.41-15.39,9.13-23.23l.03-.37V8.96l-5.72-1.7C99.64,2.51,80.64,0,60.69,0h0Z"/><path class="cls-1" d="m99.46,56.54c-.92.83-1.81,1.7-2.75,2.5-1.84,1.57-3.71,3.1-5.54,4.62-1.29-.65-2.52-1.31-3.8-1.88-3.94-1.77-8.08-2.9-12.32-3.68-5.03-.92-10.1-1.32-15.21-1.25-7.48.1-14.84,1.04-21.97,3.46-2.6.88-5.1,1.97-7.49,3.4-1.16-.96-2.33-1.9-3.47-2.86-1.49-1.26-2.98-2.52-4.45-3.8-.57-.49-.61-.84-.18-1.47.35-.5.73-.98,1.14-1.44,1.78-2.04,2.88-4.4,3.35-7.07.23-1.3.55-2.58.86-3.86.48-2.01,1.81-3.11,3.81-3.38,1.76-.24,3.52-.39,5.28-.59,5.02-.58,9.84-1.77,14.03-4.75,1.53-1.09,2.91-2.41,4.42-3.54,1.17-.87,2.41-1.67,3.68-2.39,1.23-.69,2.53-.64,3.8-.02,1.92.93,3.62,2.2,5.17,3.63,4.23,3.94,9.3,5.99,14.94,6.78,2.2.31,4.42.51,6.63.78.54.07,1.08.19,1.6.33,1.34.38,2.28,1.24,2.66,2.57.45,1.59.83,3.21,1.15,4.83.46,2.38,1.46,4.48,3,6.35.58.7,1.12,1.44,1.68,2.16v.58Zm-38.66-22.5s-.07,0-.11,0c-.06.16-.12.32-.17.48-.7,2.14-1.4,4.28-2.08,6.43-.1.32-.25.42-.57.41-2.27-.01-4.55,0-6.82,0-.16,0-.32,0-.48,0,.13.22.27.32.41.43,1.79,1.32,3.57,2.66,5.37,3.96.34.25.44.45.3.86-.71,2.14-1.39,4.28-2.09,6.43-.05.16-.09.33-.17.6.23-.16.36-.25.49-.34,1.82-1.33,3.66-2.65,5.47-3.99.3-.22.5-.21.79,0,1.81,1.33,3.63,2.63,5.44,3.95.13.1.27.18.5.34-.07-.25-.1-.37-.14-.49-.7-2.17-1.4-4.35-2.12-6.52-.12-.36-.08-.56.24-.79,1.88-1.36,3.74-2.76,5.6-4.14.09-.07.17-.15.32-.3-2.48,0-4.85-.01-7.21.01-.46,0-.67-.12-.81-.57-.7-2.26-1.44-4.5-2.17-6.75Z"/><path class="cls-1" d="m32.66,75.26c2.34-1.26,4.79-2.19,7.31-2.94,3.96-1.19,8.01-1.93,12.12-2.36,4.16-.44,8.33-.58,12.52-.37,7.1.36,14.06,1.45,20.72,4.06,1.03.41,2.02.92,3.04,1.36.42.18.48.38.31.8-1.08,2.55-2.87,4.49-5.15,6-2.72,1.79-5.74,2.83-8.88,3.53-4.53,1.01-9.12,1.29-13.75,1.15-1.24-.04-2.48.05-3.73.02-5.07-.11-10.06-.71-14.84-2.51-2.9-1.09-5.54-2.61-7.58-5.02-.93-1.1-1.82-2.66-2.09-3.72Z"/><path class="cls-1" d="m89.1,70.87c-2.93-1.47-5.92-2.54-8.99-3.36-3.4-.91-6.85-1.52-10.35-1.91-3.69-.41-7.4-.56-11.11-.46-8.06.22-15.94,1.4-23.47,4.45-.94.38-1.85.82-2.83,1.25,0-1.19-.01-2.34.02-3.5,0-.13.21-.3.36-.38,2.22-1.2,4.56-2.09,6.97-2.83,3.85-1.18,7.78-1.92,11.77-2.38,4.72-.54,9.46-.66,14.2-.37,6.87.42,13.6,1.56,20.01,4.16,1.06.43,2.08.96,3.1,1.46.13.06.29.24.29.37.02,1.14.01,2.28.01,3.5Z"/></svg>